<svg width="15" height="15" viewBox="0 0 15 15" fill="none" xmlns="http://www.w3.org/2000/svg">
<path d="M3.80009 14.8042L3.96209 14.6242L4.10609 14.5342L4.26809 14.6242C4.50209 14.4442 4.70009 14.2462 4.86209 14.0482C5.02409 13.8502 5.33009 13.3282 5.81609 12.5182L6.93209 10.6282C7.52609 9.62021 10.6401 5.39021 11.3421 4.59821C12.9621 2.74421 13.5021 2.18621 13.7181 1.89821C13.9161 1.64621 14.0421 1.44821 14.0421 1.30421C14.0421 1.21421 13.9881 1.07021 13.8981 1.07021C13.8081 1.07021 13.6641 1.14221 13.4841 1.26821L13.6281 0.944207L13.0161 1.30421L13.0521 1.05221C13.0161 1.16021 12.7281 1.44821 12.6561 1.44821C12.6021 1.44821 12.5841 1.39421 12.5841 1.30421V1.23221L12.0801 1.48421C12.0441 1.48421 12.0081 1.46621 12.0081 1.41221C12.0081 1.35821 12.0441 1.23221 12.0801 1.05221C11.8281 1.32221 11.4681 1.62821 11.0001 1.95221C10.3701 2.38421 7.92209 5.46221 6.93209 7.06421C6.26609 8.12621 5.99609 8.75621 5.88809 8.75621C5.85209 8.75621 5.83409 8.68421 5.81609 8.54021C5.49209 9.27821 5.20409 9.89021 4.91609 10.3402C4.62809 10.7902 4.35809 11.0242 4.16009 11.0242C3.92609 11.0242 3.72809 10.5742 3.51209 9.65621C3.42209 9.26021 3.22409 9.00821 2.93609 8.86421L2.88209 8.84621C2.82809 8.84621 2.75609 8.88221 2.66609 8.93621C2.57609 8.99021 2.52209 9.04421 2.48609 9.04421H2.46809L2.14409 8.93621L1.85609 9.36821C1.82009 9.42221 1.74809 9.44021 1.69409 9.44021C1.60409 9.44021 1.53209 9.42221 1.49609 9.36821C1.42409 9.62021 1.33409 9.74621 1.26209 9.74621C1.20809 9.74621 1.10009 9.71021 0.956086 9.62021C1.08209 10.5742 1.19009 11.2042 1.29809 11.5102C1.51409 12.1042 2.00009 13.4542 2.46809 14.3542C2.52209 14.4622 2.59409 14.5882 2.64809 14.6962C2.82809 14.5882 2.88209 14.5702 3.00809 14.5702L3.15209 14.5882C3.24209 14.6242 3.29609 14.6782 3.29609 14.7682L3.71009 14.5702C3.78209 14.5702 3.80009 14.6422 3.80009 14.8042Z" fill="#0079DD"/>
</svg>
