<svg width="174" height="48" viewBox="0 0 174 48" fill="none" xmlns="http://www.w3.org/2000/svg">
<g clip-path="url(#clip0_3522_4967)">
<path d="M39.9346 23.613C39.8587 23.6865 39.7668 23.722 39.6591 23.722H36.355C36.2472 23.722 36.1933 23.7735 36.1933 23.8776V31.3858C36.1933 32.1757 36.3721 32.7464 36.7273 33.0991C37.0836 33.453 37.6506 33.6281 38.4283 33.6281H39.4007C39.5084 33.6281 39.6003 33.6648 39.6762 33.7371C39.7521 33.8106 39.7901 33.8988 39.7901 34.0016V36.3382C39.7901 36.5672 39.6603 36.7019 39.4019 36.7436L37.7168 36.7742C36.0109 36.7742 34.736 36.4938 33.8947 35.9329C33.0534 35.372 32.6198 34.3127 32.599 32.7549V23.8763C32.599 23.7722 32.5451 23.7208 32.4374 23.7208H30.5906C30.4828 23.7208 30.391 23.6853 30.3151 23.6118C30.2391 23.5396 30.2012 23.4514 30.2012 23.3473V21.1662C30.2012 21.0621 30.2391 20.9739 30.3151 20.9017C30.391 20.8294 30.4816 20.7927 30.5906 20.7927H32.4374C32.5451 20.7927 32.599 20.7413 32.599 20.6372V16.9927C32.599 16.8886 32.637 16.8004 32.7129 16.7281C32.7888 16.6559 32.8795 16.6191 32.9884 16.6191H35.8063C35.9141 16.6191 36.006 16.6559 36.0819 16.7281C36.1578 16.8016 36.1958 16.8898 36.1958 16.9927V20.6372C36.1958 20.7413 36.2497 20.7927 36.3574 20.7927H39.6615C39.7693 20.7927 39.8611 20.8294 39.937 20.9017C40.013 20.9752 40.0509 21.0633 40.0509 21.1662V23.3473C40.0473 23.4526 40.0093 23.5408 39.9346 23.613Z" fill="#041C3C"/>
<path d="M54.7928 28.7076L54.761 29.6738C54.761 29.9237 54.6312 30.0474 54.3728 30.0474H44.2328C44.125 30.0474 44.0711 30.1 44.0711 30.2029C44.1361 30.8887 44.2328 31.3553 44.3626 31.6051C44.8806 33.1004 46.1445 33.8584 48.1529 33.8792C49.6212 33.8792 50.7871 33.2975 51.6516 32.1341C51.7374 32.0092 51.8464 31.9468 51.9762 31.9468C52.0619 31.9468 52.1378 31.9774 52.2027 32.0398L54.2111 33.6282C54.4059 33.7739 54.4377 33.9393 54.3079 34.1266C53.638 35.0402 52.7477 35.7468 51.6357 36.2452C50.5238 36.7437 49.2869 36.9935 47.9263 36.9935C46.2412 36.9935 44.8108 36.6298 43.634 35.9036C42.4571 35.1774 41.5986 34.1585 41.0585 32.8506C40.5613 31.7288 40.314 30.1711 40.314 28.1773C40.314 26.9735 40.4438 25.9963 40.7022 25.2492C41.1345 23.7956 41.9489 22.6481 43.1478 21.8068C44.3467 20.9655 45.7881 20.5454 47.472 20.5454C51.7264 20.5454 54.123 22.6848 54.663 26.9637C54.75 27.4817 54.7928 28.0634 54.7928 28.7076ZM45.4795 24.2365C44.9504 24.621 44.5769 25.1549 44.3614 25.8407C44.2316 26.1947 44.1446 26.6502 44.1018 27.2111C44.0577 27.3152 44.1018 27.3666 44.2316 27.3666H50.8079C50.9156 27.3666 50.9695 27.3152 50.9695 27.2111C50.9254 26.6919 50.8618 26.2975 50.7748 26.0269C50.5801 25.2786 50.1968 24.6982 49.6249 24.2818C49.053 23.8666 48.3341 23.6584 47.4707 23.6584C46.6723 23.6597 46.0085 23.8519 45.4795 24.2365Z" fill="#041C3C"/>
<path d="M68.3473 22.0392C69.3944 23.0361 69.9185 24.3967 69.9185 26.1209V36.3393C69.9185 36.4434 69.8806 36.5316 69.8046 36.6038C69.7287 36.6773 69.6369 36.7128 69.5291 36.7128H66.5483C66.4406 36.7128 66.3487 36.6773 66.2728 36.6038C66.1969 36.5316 66.1589 36.4434 66.1589 36.3393V26.868C66.1589 25.9128 65.8785 25.1388 65.3163 24.5473C64.7542 23.9558 64.0097 23.6594 63.0814 23.6594C62.1531 23.6594 61.4024 23.9509 60.8305 24.5314C60.2586 25.1131 59.972 25.8821 59.972 26.8374V36.3393C59.972 36.4434 59.9341 36.5316 59.8581 36.6038C59.7822 36.6773 59.6904 36.7128 59.5826 36.7128H56.6018C56.4941 36.7128 56.4022 36.6773 56.3263 36.6038C56.2504 36.5316 56.2124 36.4434 56.2124 36.3393V21.1673C56.2124 21.0632 56.2504 20.975 56.3263 20.9028C56.4022 20.8305 56.4928 20.7938 56.6018 20.7938H59.5826C59.6904 20.7938 59.7822 20.8305 59.8581 20.9028C59.9341 20.9762 59.972 21.0644 59.972 21.1673V22.1641C59.972 22.2266 59.9929 22.2682 60.0369 22.2891C60.0798 22.3099 60.1129 22.2891 60.1337 22.2266C61.0191 21.1048 62.3576 20.5439 64.1505 20.5439C65.9005 20.5439 67.299 21.0424 68.3473 22.0392Z" fill="#041C3C"/>
<path d="M82.2371 21.23C83.2732 21.6868 84.0728 22.315 84.6337 23.1147C85.1946 23.9144 85.4763 24.8231 85.4763 25.8407V36.3396C85.4763 36.4436 85.4383 36.5318 85.3624 36.6041C85.2865 36.6776 85.1946 36.7131 85.0868 36.7131H82.1061C81.9983 36.7131 81.9065 36.6776 81.8305 36.6041C81.7546 36.5318 81.7166 36.4436 81.7166 36.3396V35.3427C81.7166 35.2802 81.6946 35.2447 81.6517 35.2337C81.6076 35.2239 81.5648 35.2386 81.5219 35.2802C80.4638 36.402 78.9306 36.9629 76.9222 36.9629C75.302 36.9629 73.9684 36.5686 72.9213 35.7787C71.873 34.99 71.3501 33.8156 71.3501 32.2578C71.3501 30.6376 71.9379 29.3763 73.116 28.4725C74.2929 27.5687 75.9511 27.1168 78.088 27.1168H81.5538C81.6615 27.1168 81.7154 27.0654 81.7154 26.9613V26.213C81.7154 25.4036 81.4668 24.7753 80.9708 24.3283C80.4736 23.8813 79.7291 23.6584 78.7359 23.6584C77.9154 23.6584 77.2504 23.7981 76.7434 24.0785C76.2352 24.3589 75.9168 24.7484 75.7882 25.2468C75.7233 25.4966 75.5714 25.6007 75.3351 25.5579L72.1926 25.1843C72.0849 25.1635 71.993 25.128 71.9171 25.0753C71.8412 25.0239 71.8142 24.9566 71.8363 24.8733C72.009 23.607 72.7156 22.5673 73.9586 21.7578C75.2004 20.9483 76.7605 20.543 78.6391 20.543C80.0022 20.5442 81.2011 20.7732 82.2371 21.23ZM80.4626 33.2865C81.2182 32.7465 81.5966 32.0607 81.5966 31.2304V29.7657C81.5966 29.6616 81.5427 29.6102 81.435 29.6102H78.7138C77.5688 29.6102 76.6675 29.8184 76.0086 30.2335C75.3498 30.6487 75.0203 31.2414 75.0203 32.0092C75.0203 32.6742 75.2738 33.1886 75.7821 33.5511C76.2891 33.9148 76.943 34.096 77.7415 34.096C78.7996 34.0972 79.707 33.8278 80.4626 33.2865Z" fill="#041C3C"/>
<path d="M101.448 28.7074C101.448 30.1819 101.242 31.48 100.832 32.6018C100.357 33.9721 99.5901 35.0425 98.532 35.8103C97.4739 36.5794 96.1782 36.9627 94.645 36.9627C93.1326 36.9627 91.892 36.4128 90.9197 35.3119C90.8756 35.2494 90.8327 35.2286 90.7899 35.2494C90.7458 35.2702 90.7249 35.3119 90.7249 35.3743V36.3406C90.7249 36.4447 90.687 36.5328 90.6111 36.6051C90.5351 36.6786 90.4433 36.7141 90.3355 36.7141H87.3548C87.247 36.7141 87.1551 36.6786 87.0792 36.6051C87.0033 36.5328 86.9653 36.4447 86.9653 36.3406V15.2793C86.9653 15.1752 87.0033 15.087 87.0792 15.0148C87.1551 14.9425 87.2458 14.9058 87.3548 14.9058H90.3355C90.4433 14.9058 90.5351 14.9425 90.6111 15.0148C90.687 15.0882 90.7249 15.1764 90.7249 15.2793V22.0393C90.7249 22.1017 90.7458 22.1434 90.7899 22.1642C90.8327 22.185 90.8756 22.1752 90.9197 22.1336C91.8479 21.0743 93.0787 20.5452 94.6132 20.5452C96.2113 20.5452 97.5339 20.9297 98.581 21.6976C99.628 22.4667 100.401 23.5358 100.897 24.9061C101.264 26.0695 101.448 27.3358 101.448 28.7074ZM97.5927 28.7686C97.5927 27.1485 97.2681 25.8822 96.6203 24.9674C96.0374 24.0954 95.1728 23.6595 94.029 23.6595C92.9709 23.6595 92.1602 24.1163 91.5993 25.0298C91.0593 25.8822 90.7899 27.1166 90.7899 28.7368C90.7899 30.3362 91.0385 31.5412 91.5344 32.3507C92.0953 33.3476 92.9379 33.846 94.0608 33.846C94.6646 33.846 95.2046 33.7162 95.681 33.4566C96.1562 33.1969 96.5334 32.8283 96.815 32.3507C97.3331 31.48 97.5927 30.286 97.5927 28.7686Z" fill="#041C3C"/>
<path d="M103 36.6283C102.924 36.556 102.886 36.4678 102.886 36.3637V15.3037C102.886 15.1996 102.924 15.1114 103 15.0392C103.076 14.9669 103.166 14.9302 103.275 14.9302H106.256C106.364 14.9302 106.456 14.9669 106.531 15.0392C106.607 15.1126 106.645 15.2008 106.645 15.3037V36.3637C106.645 36.4678 106.607 36.556 106.531 36.6283C106.456 36.7017 106.364 36.7373 106.256 36.7373H103.274C103.166 36.7373 103.074 36.7017 103 36.6283Z" fill="#041C3C"/>
<path d="M122.577 28.6827L122.545 29.6489C122.545 29.8988 122.415 30.0225 122.157 30.0225H112.017C111.909 30.0225 111.855 30.0751 111.855 30.178C111.92 30.8638 112.017 31.3304 112.147 31.5802C112.665 33.0755 113.928 33.8335 115.937 33.8543C117.405 33.8543 118.571 33.2726 119.436 32.1092C119.521 31.9843 119.63 31.9219 119.759 31.9219C119.845 31.9219 119.921 31.9525 119.985 32.0149L121.994 33.6033C122.189 33.749 122.22 33.9144 122.091 34.1017C121.421 35.0153 120.53 35.7219 119.418 36.2203C118.306 36.7188 117.07 36.9686 115.709 36.9686C114.025 36.9686 112.594 36.6049 111.417 35.8787C110.24 35.1525 109.381 34.1336 108.841 32.8256C108.344 31.7039 108.097 30.1461 108.097 28.1524C108.097 26.9486 108.226 25.9714 108.485 25.2243C108.917 23.7707 109.732 22.6232 110.93 21.7819C112.129 20.9406 113.571 20.5205 115.255 20.5205C119.509 20.5205 121.906 22.6599 122.446 26.9388C122.533 27.4581 122.577 28.0398 122.577 28.6827ZM113.263 24.2116C112.734 24.5961 112.361 25.13 112.145 25.8158C112.016 26.1698 111.93 26.6253 111.886 27.1862C111.842 27.2903 111.886 27.3417 112.016 27.3417H118.592C118.7 27.3417 118.753 27.2903 118.753 27.1862C118.709 26.667 118.646 26.2726 118.559 26.002C118.364 25.2537 117.981 24.6732 117.409 24.2569C116.837 23.8417 116.118 23.6335 115.255 23.6335C114.456 23.636 113.792 23.8282 113.263 24.2116Z" fill="#041C3C"/>
<path d="M28.2527 27.7032L24.5065 16.5786C24.2359 15.7753 23.5501 15.174 22.7173 15.0123L11.0245 12.7308C10.2089 12.5716 9.35901 12.8582 8.8067 13.4778L0.875954 22.3662C0.311396 22.9994 0.128926 23.8921 0.39957 24.6955L4.14573 35.8201C4.41638 36.6247 5.10217 37.2247 5.93493 37.3864L17.6278 39.6679C17.7772 39.6973 17.9266 39.7108 18.076 39.7108C18.7434 39.7108 19.3937 39.4266 19.8456 38.9209L27.7763 30.0325C28.3409 29.4005 28.5233 28.5078 28.2527 27.7032ZM23.7264 16.8419L26.1904 24.1579L20.9539 15.8965C20.8412 15.7177 20.7028 15.5609 20.5473 15.4275L22.5618 15.8206C23.1031 15.9259 23.5501 16.3178 23.7264 16.8419ZM19.8664 36.136L15.3022 36.3675L22.6855 32.0935C22.6965 32.0874 22.7075 32.0801 22.7186 32.0727L20.9416 35.449C20.731 35.8507 20.3183 36.114 19.8664 36.136ZM8.39522 36.0638L5.81614 31.9956C5.86512 32.0311 5.91533 32.0641 5.96799 32.0947L13.4101 36.403C13.4444 36.4226 13.4799 36.4422 13.5154 36.4594L9.54883 36.6602C9.08469 36.6822 8.6426 36.4545 8.39522 36.0638ZM8.78588 16.2639L13.3501 16.0324L5.96799 20.3064C5.95697 20.3125 5.94595 20.3199 5.93493 20.3272L7.71187 16.9509C7.92251 16.5492 8.33399 16.2872 8.78588 16.2639ZM20.2583 16.3374L22.8374 20.4056C22.7884 20.3701 22.7382 20.337 22.6855 20.3064L15.2434 15.9994C15.2091 15.9798 15.1736 15.9602 15.1381 15.943L19.1047 15.7422C19.5664 15.7152 20.0097 15.9455 20.2583 16.3374ZM22.7749 30.5113C22.7749 30.8689 22.5826 31.2032 22.2728 31.3832L14.8307 35.6903C14.5196 35.8703 14.1326 35.8703 13.8216 35.6903L6.38069 31.382C6.07086 31.202 5.87859 30.8689 5.87859 30.5101V21.8886C5.87859 21.531 6.07086 21.1967 6.38069 21.0167L13.8228 16.7096C13.9783 16.619 14.1522 16.5749 14.3274 16.5749C14.5013 16.5749 14.6764 16.6203 14.8319 16.7096L22.2728 21.0179C22.5826 21.1967 22.7749 21.531 22.7749 21.8899V30.5113ZM5.08625 30.8432L2.92477 27.4326C2.67862 27.0444 2.65902 26.5496 2.87334 26.143L5.05441 21.9976V30.5101C5.05441 30.624 5.06543 30.7342 5.08625 30.8432ZM23.5672 21.5568L25.7287 24.9674C25.9749 25.3556 25.9945 25.8503 25.7802 26.2569L23.5979 30.4023V21.8899C23.5979 21.7772 23.5868 21.6658 23.5672 21.5568ZM9.42269 14.0265C9.71783 13.6958 10.1416 13.5109 10.5763 13.5109C10.673 13.5109 10.771 13.5207 10.869 13.5391L18.169 14.9633L8.74547 15.4409C8.48462 15.4544 8.23357 15.5169 8.00089 15.6197L9.42269 14.0265ZM1.49072 22.9149L6.73584 17.0379L2.14468 25.7609C2.00629 26.023 1.92914 26.3083 1.90832 26.5961L1.18089 24.4347C1.00332 23.9093 1.12333 23.3276 1.49072 22.9149ZM4.92583 35.558L2.46186 28.242L7.6984 36.5034C7.81107 36.681 7.94945 36.839 8.10498 36.9725L6.09168 36.5794C5.54917 36.474 5.1034 36.0822 4.92583 35.558ZM19.2308 38.3747C18.8708 38.7788 18.316 38.9662 17.7845 38.8621L10.4845 37.4378L19.908 36.9602C20.1689 36.9468 20.4199 36.8843 20.6526 36.7814L19.2308 38.3747ZM27.1615 29.4851L21.9177 35.3633L26.5088 26.6402C26.6472 26.3781 26.7244 26.0928 26.7452 25.805L27.4726 27.9665C27.649 28.4906 27.5302 29.0723 27.1615 29.4851Z" fill="#041C3C"/>
<path d="M40.4272 23.272C40.4272 23.3787 40.3846 23.4747 40.2992 23.56C40.2352 23.624 40.1499 23.656 40.0432 23.656H36.7792C36.6726 23.656 36.6192 23.7093 36.6192 23.816V31.528C36.6192 32.3387 36.7899 32.9253 37.1312 33.288C37.4939 33.6507 38.0592 33.832 38.8272 33.832H39.7872C39.8939 33.832 39.9792 33.8747 40.0432 33.96C40.1286 34.024 40.1712 34.1093 40.1712 34.216V36.616C40.1712 36.8507 40.0432 36.9893 39.7872 37.032L38.1232 37.064C36.4379 37.064 35.1792 36.776 34.3472 36.2C33.5152 35.624 33.0886 34.536 33.0672 32.936V23.816C33.0672 23.7093 33.0139 23.656 32.9072 23.656H31.0832C30.9766 23.656 30.8806 23.624 30.7952 23.56C30.7312 23.4747 30.6992 23.3787 30.6992 23.272V21.032C30.6992 20.9253 30.7312 20.84 30.7952 20.776C30.8806 20.6907 30.9766 20.648 31.0832 20.648H32.9072C33.0139 20.648 33.0672 20.5947 33.0672 20.488V16.744C33.0672 16.6373 33.0992 16.552 33.1632 16.488C33.2486 16.4027 33.3446 16.36 33.4512 16.36H36.2352C36.3419 16.36 36.4272 16.4027 36.4912 16.488C36.5766 16.552 36.6192 16.6373 36.6192 16.744V20.488C36.6192 20.5947 36.6726 20.648 36.7792 20.648H40.0432C40.1499 20.648 40.2352 20.6907 40.2992 20.776C40.3846 20.84 40.4272 20.9253 40.4272 21.032V23.272ZM55.2835 26.984C55.3688 27.5173 55.4115 28.1147 55.4115 28.776L55.3795 29.768C55.3795 30.024 55.2515 30.152 54.9955 30.152H44.9795C44.8728 30.152 44.8195 30.2053 44.8195 30.312C44.8835 31.016 44.9795 31.496 45.1075 31.752C45.6195 33.288 46.8675 34.0667 48.8515 34.088C50.3021 34.088 51.4541 33.4907 52.3075 32.296C52.3928 32.168 52.4995 32.104 52.6275 32.104C52.7128 32.104 52.7875 32.136 52.8515 32.2L54.8355 33.832C55.0275 33.9813 55.0595 34.152 54.9315 34.344C54.2701 35.2827 53.3848 36.008 52.2755 36.52C51.1875 37.032 49.9715 37.288 48.6275 37.288C46.9635 37.288 45.5448 36.9147 44.3715 36.168C43.2195 35.4213 42.3768 34.376 41.8435 33.032C41.3528 31.88 41.1075 30.28 41.1075 28.232C41.1075 26.9947 41.2355 25.992 41.4915 25.224C41.9181 23.7307 42.7181 22.5573 43.8915 21.704C45.0861 20.8293 46.5155 20.392 48.1795 20.392C52.3821 20.392 54.7501 22.5893 55.2835 26.984ZM48.1795 23.592C47.3901 23.592 46.7288 23.7947 46.1955 24.2C45.6835 24.584 45.3208 25.128 45.1075 25.832C44.9795 26.1947 44.8941 26.664 44.8515 27.24C44.8088 27.3467 44.8515 27.4 44.9795 27.4H51.4755C51.5821 27.4 51.6355 27.3467 51.6355 27.24C51.5928 26.7067 51.5288 26.3013 51.4435 26.024C51.2515 25.256 50.8675 24.6587 50.2915 24.232C49.7368 23.8053 49.0328 23.592 48.1795 23.592ZM64.724 20.392C66.452 20.392 67.828 20.904 68.852 21.928C69.8973 22.952 70.42 24.3493 70.42 26.12V36.616C70.42 36.7227 70.3773 36.8187 70.292 36.904C70.228 36.968 70.1426 37 70.036 37H67.092C66.9853 37 66.8893 36.968 66.804 36.904C66.74 36.8187 66.708 36.7227 66.708 36.616V26.888C66.708 25.9067 66.4306 25.1173 65.876 24.52C65.3213 23.9013 64.5853 23.592 63.668 23.592C62.7506 23.592 62.004 23.8907 61.428 24.488C60.8733 25.0853 60.596 25.8747 60.596 26.856V36.616C60.596 36.7227 60.5533 36.8187 60.468 36.904C60.404 36.968 60.3186 37 60.212 37H57.268C57.1613 37 57.0653 36.968 56.98 36.904C56.916 36.8187 56.884 36.7227 56.884 36.616V21.032C56.884 20.9253 56.916 20.84 56.98 20.776C57.0653 20.6907 57.1613 20.648 57.268 20.648H60.212C60.3186 20.648 60.404 20.6907 60.468 20.776C60.5533 20.84 60.596 20.9253 60.596 21.032V22.056C60.596 22.12 60.6173 22.1627 60.66 22.184C60.7026 22.2053 60.7346 22.184 60.756 22.12C61.6306 20.968 62.9533 20.392 64.724 20.392ZM78.6102 20.392C79.9542 20.392 81.1382 20.6267 82.1622 21.096C83.1862 21.5653 83.9756 22.216 84.5302 23.048C85.0849 23.8587 85.3622 24.7867 85.3622 25.832V36.616C85.3622 36.7227 85.3196 36.8187 85.2342 36.904C85.1702 36.968 85.0849 37 84.9782 37H82.0342C81.9276 37 81.8316 36.968 81.7462 36.904C81.6822 36.8187 81.6502 36.7227 81.6502 36.616V35.592C81.6502 35.528 81.6289 35.496 81.5862 35.496C81.5436 35.4747 81.5009 35.4853 81.4582 35.528C80.4129 36.68 78.8982 37.256 76.9142 37.256C75.3142 37.256 73.9916 36.8507 72.9462 36.04C71.9222 35.2293 71.4102 34.024 71.4102 32.424C71.4102 30.76 71.9862 29.4693 73.1382 28.552C74.3116 27.6133 75.9542 27.144 78.0662 27.144H81.4902C81.5969 27.144 81.6502 27.0907 81.6502 26.984V26.216C81.6502 25.384 81.4049 24.744 80.9142 24.296C80.4236 23.8267 79.6876 23.592 78.7062 23.592C77.8956 23.592 77.2342 23.7413 76.7222 24.04C76.2316 24.3173 75.9222 24.712 75.7942 25.224C75.7302 25.48 75.5809 25.5867 75.3462 25.544L72.2422 25.16C72.1356 25.1387 72.0396 25.1067 71.9542 25.064C71.8902 25 71.8689 24.9253 71.8902 24.84C72.0609 23.5387 72.7542 22.472 73.9702 21.64C75.2076 20.808 76.7542 20.392 78.6102 20.392ZM77.8422 34.312C78.8876 34.312 79.7836 34.0347 80.5302 33.48C81.2769 32.9253 81.6502 32.2213 81.6502 31.368V29.864C81.6502 29.7573 81.5969 29.704 81.4902 29.704H78.8022C77.6716 29.704 76.7756 29.9173 76.1142 30.344C75.4742 30.7707 75.1542 31.3787 75.1542 32.168C75.1542 32.8507 75.3996 33.384 75.8902 33.768C76.4022 34.1307 77.0529 34.312 77.8422 34.312ZM100.961 24.872C101.324 26.0667 101.505 27.368 101.505 28.776C101.505 30.2907 101.302 31.624 100.897 32.776C100.428 34.184 99.6703 35.2827 98.625 36.072C97.5796 36.8613 96.2996 37.256 94.785 37.256C93.2916 37.256 92.065 36.6907 91.105 35.56C91.0623 35.496 91.0196 35.4747 90.977 35.496C90.9343 35.5173 90.913 35.56 90.913 35.624V36.616C90.913 36.7227 90.8703 36.8187 90.785 36.904C90.721 36.968 90.6356 37 90.529 37H87.585C87.4783 37 87.3823 36.968 87.297 36.904C87.233 36.8187 87.201 36.7227 87.201 36.616V14.984C87.201 14.8773 87.233 14.792 87.297 14.728C87.3823 14.6427 87.4783 14.6 87.585 14.6H90.529C90.6356 14.6 90.721 14.6427 90.785 14.728C90.8703 14.792 90.913 14.8773 90.913 14.984V21.928C90.913 21.992 90.9343 22.0347 90.977 22.056C91.0196 22.0773 91.0623 22.0667 91.105 22.024C92.0223 20.936 93.2383 20.392 94.753 20.392C96.3316 20.392 97.633 20.7867 98.657 21.576C99.7023 22.3653 100.47 23.464 100.961 24.872ZM96.929 32.52C97.441 31.624 97.697 30.3973 97.697 28.84C97.697 27.176 97.377 25.8747 96.737 24.936C96.161 24.04 95.3076 23.592 94.177 23.592C93.1316 23.592 92.3316 24.0613 91.777 25C91.2436 25.8747 90.977 27.144 90.977 28.808C90.977 30.4507 91.2223 31.688 91.713 32.52C92.2676 33.544 93.0996 34.056 94.209 34.056C94.8063 34.056 95.3396 33.928 95.809 33.672C96.2783 33.3947 96.6516 33.0107 96.929 32.52ZM103.508 37C103.401 37 103.305 36.968 103.22 36.904C103.156 36.8187 103.124 36.7227 103.124 36.616V14.984C103.124 14.8773 103.156 14.792 103.22 14.728C103.305 14.6427 103.401 14.6 103.508 14.6H106.452C106.559 14.6 106.644 14.6427 106.708 14.728C106.793 14.792 106.836 14.8773 106.836 14.984V36.616C106.836 36.7227 106.793 36.8187 106.708 36.904C106.644 36.968 106.559 37 106.452 37H103.508ZM122.652 26.984C122.738 27.5173 122.78 28.1147 122.78 28.776L122.748 29.768C122.748 30.024 122.62 30.152 122.364 30.152H112.348C112.242 30.152 112.188 30.2053 112.188 30.312C112.252 31.016 112.348 31.496 112.476 31.752C112.988 33.288 114.236 34.0667 116.22 34.088C117.671 34.088 118.823 33.4907 119.676 32.296C119.762 32.168 119.868 32.104 119.996 32.104C120.082 32.104 120.156 32.136 120.22 32.2L122.204 33.832C122.396 33.9813 122.428 34.152 122.3 34.344C121.639 35.2827 120.754 36.008 119.644 36.52C118.556 37.032 117.34 37.288 115.996 37.288C114.332 37.288 112.914 36.9147 111.74 36.168C110.588 35.4213 109.746 34.376 109.212 33.032C108.722 31.88 108.476 30.28 108.476 28.232C108.476 26.9947 108.604 25.992 108.86 25.224C109.287 23.7307 110.087 22.5573 111.26 21.704C112.455 20.8293 113.884 20.392 115.548 20.392C119.751 20.392 122.119 22.5893 122.652 26.984ZM115.548 23.592C114.759 23.592 114.098 23.7947 113.564 24.2C113.052 24.584 112.69 25.128 112.476 25.832C112.348 26.1947 112.263 26.664 112.22 27.24C112.178 27.3467 112.22 27.4 112.348 27.4H118.844C118.951 27.4 119.004 27.3467 119.004 27.24C118.962 26.7067 118.898 26.3013 118.812 26.024C118.62 25.256 118.236 24.6587 117.66 24.232C117.106 23.8053 116.402 23.592 115.548 23.592Z" fill="#041C3C"/>
<path d="M132.982 37.2558C131.446 37.2558 130.123 36.8611 129.014 36.0718C127.904 35.2824 127.136 34.1944 126.71 32.8078C126.411 31.8264 126.262 30.5144 126.262 28.8718C126.262 27.2291 126.411 25.9278 126.71 24.9678C127.115 23.6024 127.872 22.5251 128.982 21.7358C130.091 20.9464 131.435 20.5518 133.014 20.5518C134.528 20.5518 135.83 20.9464 136.918 21.7358C138.027 22.5251 138.784 23.5918 139.19 24.9358C139.488 25.8531 139.638 27.1651 139.638 28.8718C139.638 30.5998 139.488 31.9118 139.19 32.8078C138.784 34.1944 138.027 35.2824 136.918 36.0718C135.83 36.8611 134.518 37.2558 132.982 37.2558ZM132.982 35.2718C134.006 35.2718 134.88 34.9944 135.606 34.4398C136.331 33.8638 136.822 33.0958 137.078 32.1358C137.27 31.3678 137.366 30.2904 137.366 28.9038C137.366 27.4958 137.28 26.4184 137.11 25.6718C136.854 24.7118 136.352 23.9544 135.606 23.3998C134.88 22.8238 133.995 22.5358 132.95 22.5358C131.904 22.5358 131.019 22.8238 130.294 23.3998C129.568 23.9544 129.078 24.7118 128.822 25.6718C128.651 26.4184 128.566 27.4958 128.566 28.9038C128.566 30.3118 128.651 31.3891 128.822 32.1358C129.056 33.0958 129.536 33.8638 130.262 34.4398C131.008 34.9944 131.915 35.2718 132.982 35.2718Z" fill="#041C3C"/>
<path d="M149.043 20.5838C150.75 20.5838 152.105 21.0851 153.107 22.0878C154.131 23.0904 154.643 24.4344 154.643 26.1198V36.6798C154.643 36.8931 154.537 36.9998 154.323 36.9998H152.691C152.478 36.9998 152.371 36.8931 152.371 36.6798V26.5678C152.371 25.3944 152.009 24.4344 151.283 23.6878C150.579 22.9411 149.662 22.5678 148.531 22.5678C147.358 22.5678 146.409 22.9304 145.683 23.6558C144.958 24.3811 144.595 25.3304 144.595 26.5038V36.6798C144.595 36.8931 144.489 36.9998 144.275 36.9998H142.643C142.43 36.9998 142.323 36.8931 142.323 36.6798V21.1278C142.323 20.9144 142.43 20.8078 142.643 20.8078H144.275C144.489 20.8078 144.595 20.9144 144.595 21.1278V22.5038C144.595 22.5464 144.606 22.5784 144.627 22.5998C144.67 22.6211 144.702 22.6104 144.723 22.5678C145.662 21.2451 147.102 20.5838 149.043 20.5838Z" fill="#041C3C"/>
<path d="M169.85 26.1838C169.936 26.7811 169.978 27.5278 169.978 28.4238V29.4478C169.978 29.6611 169.872 29.7678 169.658 29.7678H159.322C159.237 29.7678 159.194 29.8104 159.194 29.8958C159.237 31.0691 159.301 31.8264 159.386 32.1678C159.621 33.1278 160.122 33.8851 160.89 34.4398C161.658 34.9944 162.64 35.2718 163.834 35.2718C164.73 35.2718 165.52 35.0691 166.202 34.6638C166.885 34.2584 167.418 33.6824 167.802 32.9358C167.93 32.7438 168.08 32.7011 168.25 32.8078L169.498 33.5438C169.669 33.6504 169.712 33.7998 169.626 33.9918C169.093 35.0158 168.293 35.8264 167.226 36.4238C166.16 36.9998 164.933 37.2878 163.546 37.2878C162.032 37.2664 160.762 36.9038 159.738 36.1998C158.714 35.4958 157.978 34.5144 157.53 33.2558C157.146 32.2318 156.954 30.7598 156.954 28.8398C156.954 27.9438 156.965 27.2184 156.986 26.6638C157.029 26.0878 157.114 25.5758 157.242 25.1278C157.605 23.7411 158.33 22.6318 159.418 21.7998C160.528 20.9678 161.861 20.5518 163.418 20.5518C165.36 20.5518 166.853 21.0424 167.898 22.0238C168.944 23.0051 169.594 24.3918 169.85 26.1838ZM163.418 22.5358C162.373 22.5358 161.498 22.8131 160.794 23.3678C160.112 23.9011 159.664 24.6264 159.45 25.5438C159.322 25.9918 159.237 26.7171 159.194 27.7198C159.194 27.8051 159.237 27.8478 159.322 27.8478H167.61C167.696 27.8478 167.738 27.8051 167.738 27.7198C167.696 26.7598 167.632 26.0771 167.546 25.6718C167.312 24.7118 166.832 23.9544 166.106 23.3998C165.402 22.8238 164.506 22.5358 163.418 22.5358Z" fill="#041C3C"/>
<path d="M170.091 14.9665V14.843C170.091 14.8121 170.122 14.7812 170.122 14.7812H171.511C171.542 14.7812 171.573 14.8121 171.573 14.8121V14.9356C171.573 14.9665 171.542 14.9974 171.542 14.9974H170.986C170.955 14.9974 170.955 14.9974 170.955 15.0282V16.819C170.955 16.8499 170.924 16.8807 170.894 16.8807H170.739C170.708 16.8807 170.677 16.8499 170.677 16.8499V15.0591C170.677 15.0591 170.677 15.0282 170.647 15.0282H170.122C170.122 15.0282 170.091 14.9974 170.091 14.9665ZM173.394 14.7812H173.549C173.58 14.7812 173.611 14.8121 173.611 14.843V16.819C173.611 16.8499 173.58 16.8807 173.549 16.8807H173.394C173.364 16.8807 173.333 16.8499 173.333 16.819V15.2752V15.2444L172.931 15.8619C172.931 15.8927 172.9 15.8927 172.87 15.8927H172.808C172.777 15.8927 172.746 15.8927 172.746 15.8619L172.345 15.2444V15.2752V16.819C172.345 16.8499 172.314 16.8807 172.283 16.8807H172.129C172.098 16.8807 172.067 16.8499 172.067 16.819V14.843C172.067 14.8121 172.098 14.7812 172.129 14.7812H172.283C172.314 14.7812 172.345 14.7813 172.345 14.8121L172.808 15.5531H172.839C172.839 15.5531 172.839 15.5531 172.87 15.5531L173.364 14.8121C173.364 14.8121 173.364 14.7812 173.394 14.7812Z" fill="#041C3C"/>
</g>
<defs>
<clipPath id="clip0_3522_4967">
<rect width="174" height="48" fill="white"/>
</clipPath>
</defs>
</svg>
