<svg width="15" height="15" viewBox="0 0 15 15" fill="none" xmlns="http://www.w3.org/2000/svg">
<path d="M3.80009 14.0381L3.96209 13.8581L4.10609 13.7681L4.26809 13.8581C4.50209 13.6781 4.70009 13.4801 4.86209 13.2821C5.02409 13.0841 5.33009 12.5621 5.81609 11.7521L6.93209 9.86209C7.52609 8.85409 10.6401 4.62409 11.3421 3.83209C12.9621 1.97809 13.5021 1.42009 13.7181 1.13209C13.9161 0.880093 14.0421 0.682094 14.0421 0.538093C14.0421 0.448093 13.9881 0.304093 13.8981 0.304093C13.8081 0.304093 13.6641 0.376093 13.4841 0.502094L13.6281 0.178094L13.0161 0.538093L13.0521 0.286093C13.0161 0.394093 12.7281 0.682094 12.6561 0.682094C12.6021 0.682094 12.5841 0.628093 12.5841 0.538093V0.466093L12.0801 0.718093C12.0441 0.718093 12.0081 0.700093 12.0081 0.646093C12.0081 0.592094 12.0441 0.466093 12.0801 0.286093C11.8281 0.556093 11.4681 0.862093 11.0001 1.18609C10.3701 1.61809 7.92209 4.69609 6.93209 6.29809C6.26609 7.36009 5.99609 7.99009 5.88809 7.99009C5.85209 7.99009 5.83409 7.91809 5.81609 7.77409C5.49209 8.51209 5.20409 9.12409 4.91609 9.57409C4.62809 10.0241 4.35809 10.2581 4.16009 10.2581C3.92609 10.2581 3.72809 9.80809 3.51209 8.89009C3.42209 8.49409 3.22409 8.24209 2.93609 8.09809L2.88209 8.08009C2.82809 8.08009 2.75609 8.11609 2.66609 8.17009C2.57609 8.22409 2.52209 8.27809 2.48609 8.27809H2.46809L2.14409 8.17009L1.85609 8.60209C1.82009 8.65609 1.74809 8.67409 1.69409 8.67409C1.60409 8.67409 1.53209 8.65609 1.49609 8.60209C1.42409 8.85409 1.33409 8.98009 1.26209 8.98009C1.20809 8.98009 1.10009 8.94409 0.956086 8.85409C1.08209 9.80809 1.19009 10.4381 1.29809 10.7441C1.51409 11.3381 2.00009 12.6881 2.46809 13.5881C2.52209 13.6961 2.59409 13.8221 2.64809 13.9301C2.82809 13.8221 2.88209 13.8041 3.00809 13.8041L3.15209 13.8221C3.24209 13.8581 3.29609 13.9121 3.29609 14.0021L3.71009 13.8041C3.78209 13.8041 3.80009 13.8761 3.80009 14.0381Z" fill="#0079DD"/>
</svg>
