<svg width="12" height="11" viewBox="0 0 12 11" fill="none" xmlns="http://www.w3.org/2000/svg">
<path d="M3.12229 10.8621L3.24829 10.7221L3.36029 10.6521L3.48629 10.7221C3.66829 10.5821 3.82229 10.4281 3.94829 10.2741C4.07429 10.1201 4.31229 9.71409 4.69029 9.08409L5.55829 7.61409C6.02029 6.83009 8.44229 3.54009 8.98829 2.92409C10.2483 1.48209 10.6683 1.04809 10.8363 0.824093C10.9903 0.628093 11.0883 0.474094 11.0883 0.362093C11.0883 0.292093 11.0463 0.180093 10.9763 0.180093C10.9063 0.180093 10.7943 0.236093 10.6543 0.334094L10.7663 0.0820936L10.2903 0.362093L10.3183 0.166093C10.2903 0.250093 10.0663 0.474094 10.0103 0.474094C9.96829 0.474094 9.95429 0.432093 9.95429 0.362093V0.306093L9.56229 0.502093C9.53429 0.502093 9.50629 0.488093 9.50629 0.446093C9.50629 0.404094 9.53429 0.306093 9.56229 0.166093C9.36629 0.376093 9.08629 0.614093 8.72229 0.866094C8.23229 1.20209 6.32829 3.59609 5.55829 4.84209C5.04029 5.66809 4.83029 6.15809 4.74629 6.15809C4.71829 6.15809 4.70429 6.10209 4.69029 5.99009C4.43829 6.56409 4.21429 7.04009 3.99029 7.39009C3.76629 7.74009 3.55629 7.92209 3.40229 7.92209C3.22029 7.92209 3.06629 7.57209 2.89829 6.85809C2.82829 6.55009 2.67429 6.35409 2.45029 6.24209L2.40829 6.22809C2.36629 6.22809 2.31029 6.25609 2.24029 6.29809C2.17029 6.34009 2.12829 6.38209 2.10029 6.38209H2.08629L1.83429 6.29809L1.61029 6.63409C1.58229 6.67609 1.52629 6.69009 1.48429 6.69009C1.41429 6.69009 1.35829 6.67609 1.33029 6.63409C1.27429 6.83009 1.20429 6.92809 1.14829 6.92809C1.10629 6.92809 1.02229 6.90009 0.910289 6.83009C1.00829 7.57209 1.09229 8.06209 1.17629 8.30009C1.34429 8.76209 1.72229 9.81209 2.08629 10.5121C2.12829 10.5961 2.18429 10.6941 2.22629 10.7781C2.36629 10.6941 2.40829 10.6801 2.50629 10.6801L2.61829 10.6941C2.68829 10.7221 2.73029 10.7641 2.73029 10.8341L3.05229 10.6801C3.10829 10.6801 3.12229 10.7361 3.12229 10.8621Z" fill="#0079DD"/>
</svg>
